HIERARCHY
ROOT Hips
{
	OFFSET 0.00000 0.00000 0.00000
	CHANNELS 6 Xposition Yposition Zposition Zrotation Yrotation Xrotation 
	JOINT LHipJoint
	{
		OFFSET 0 0 0
		CHANNELS 3 Zrotation Yrotation Xrotation
		JOINT LeftHip
		{
			OFFSET 1.64577 -1.42384 0.94276
			CHANNELS 3 Zrotation Yrotation Xrotation
			JOINT LeftKnee
			{
				OFFSET 2.11538 -5.81197 0.00000
				CHANNELS 3 Zrotation Yrotation Xrotation
				JOINT LeftAnkle
				{
					OFFSET 2.36541 -6.49893 0.00000
					CHANNELS 3 Zrotation Yrotation Xrotation
					JOINT LeftToe
					{
						OFFSET 0.17759 -0.48793 1.73865
						CHANNELS 3 Zrotation Yrotation Xrotation
						End Site
						{
							OFFSET 0.00000 -0.00000 0.91205
						}
					}
				}
			}
		}
	}
	JOINT RHipJoint
	{
		OFFSET 0 0 0
		CHANNELS 3 Zrotation Yrotation Xrotation
		JOINT RightHip
		{
			OFFSET -1.43750 -1.42384 0.94276
			CHANNELS 3 Zrotation Yrotation Xrotation
			JOINT RightKnee
			{
				OFFSET -2.10480 -5.78291 0.00000
				CHANNELS 3 Zrotation Yrotation Xrotation
				JOINT RightAnkle
				{
					OFFSET -2.34880 -6.45329 0.00000
					CHANNELS 3 Zrotation Yrotation Xrotation
					JOINT RightToe
					{
						OFFSET -0.22842 -0.62757 1.80469
						CHANNELS 3 Zrotation Yrotation Xrotation
						End Site
						{
							OFFSET -0.00000 -0.00000 0.95886
						}
					}
				}
			}
		}
	}
	JOINT lowerback
	{
		OFFSET 0 0 0
		CHANNELS 3 Zrotation Yrotation Xrotation
		JOINT Chest
		{
			OFFSET 0.06217 1.93758 -0.49272
			CHANNELS 3 Zrotation Yrotation Xrotation
			JOINT Chest2
			{
				OFFSET -0.03114 2.03621 -0.05830
				CHANNELS 3 Zrotation Yrotation Xrotation
				JOINT lowerneck
				{
					OFFSET 0 0 0
					CHANNELS 3 Zrotation Yrotation Xrotation
					JOINT Neck
					{
						OFFSET 0.04421 1.41010 0.26562
						CHANNELS 3 Zrotation Yrotation Xrotation
						JOINT Head
						{
							OFFSET -0.13407 1.43847 0.06181
							CHANNELS 3 Zrotation Yrotation Xrotation
							End Site
							{
								OFFSET -0.04980 1.45844 -0.00689
							}
						}
					}
				}
				JOINT LeftCollar
				{
					OFFSET 0 0 0
					CHANNELS 3 Zrotation Yrotation Xrotation
					JOINT LeftShoulder
					{
						OFFSET 2.18382 1.47753 -0.35694
CHANNELS 3 Zrotation Xrotation Yrotation
						JOINT LeftElbow
						{
OFFSET 0 -5.054600 0.000000
CHANNELS 3 Zrotation Xrotation Yrotation
							JOINT LeftWrist
							{
OFFSET 0 -3.390130 0.000000
CHANNELS 3 Zrotation Xrotation Yrotation
								JOINT lhand
								{
									OFFSET 0 0 0
CHANNELS 3 Zrotation Xrotation Yrotation
									JOINT LFingers
									{
OFFSET 0 -0.572420 -0.000000
CHANNELS 3 Zrotation Xrotation Yrotation
										End Site
										{
OFFSET 0 -0.461500 -0.000000
										}
									}
								}
								JOINT LThumb
								{
OFFSET 0 0.000000 0.000000
CHANNELS 3 Zrotation Xrotation Yrotation
									End Site
									{
OFFSET 0 -0.468550 0.468550
									}
								}
							}
						}
					}
				}
				JOINT RightCollar
				{
					OFFSET 0 0 0
					CHANNELS 3 Zrotation Yrotation Xrotation
					JOINT RightShoulder
					{
						OFFSET -2.06033 1.72839 -0.47437
CHANNELS 3 Zrotation Xrotation Yrotation
						JOINT RightElbow
						{
OFFSET 0 -5.070100 0.000000
CHANNELS 3 Zrotation Xrotation Yrotation
							JOINT RightWrist
							{
OFFSET 0 -3.149570 -0.000000
CHANNELS 3 Zrotation Xrotation Yrotation
								JOINT rhand
								{
									OFFSET 0 0 0
CHANNELS 3 Zrotation Xrotation Yrotation
									JOINT RFingers
									{
OFFSET 0 -0.718190 -0.000000
CHANNELS 3 Zrotation Xrotation Yrotation
										End Site
										{
OFFSET 0 -0.579020 -0.000000
										}
									}
								}
								JOINT RThumb
								{
OFFSET 0 0.000000 0.000000
CHANNELS 3 Zrotation Xrotation Yrotation
									End Site
									{
OFFSET 0 -0.587860 0.587860
									}
								}
							}
						}
					}
				}
			}
		}
	}
}
MOTION
Frames: 5
Frame Time: .0083333
16.6121 18.3242 0.7145 -25.4871 -86.6116 23.6045 0.0000 0.0000 0.0000 -24.6001 -18.8536 -4.9922 3.2867 11.1453 32.7716 2.1927 2.0491 -28.7876 0.0118 0.7018 1.9286 0.0000 0.0000 0.0000 24.4431 7.1882 -22.6227 -8.2769 -16.3192 53.5539 -1.8327 -8.4250 -29.7753 -3.4967 11.4587 -33.8431 -1.4521 1.7007 12.8229 -0.6961 1.7171 7.5530 -0.1131 0.6713 0.7080 4.0341 2.5797 -9.0714 -2.8474 3.1556 19.7851 -1.3306 1.4301 7.6937 0.0000 -0.0000 0.0000 8.0096 13.0547 -30.0688 24.2435 -35.4207 7.8472 17.582 -4.659 -8.1343 0.0 0.0 0.0 -7.1250 0.0 0.0 -7.9784 38.3932 -1.308 0.0000 -0.0000 0.0000 -12.4376 -0.9286 34.88 -26.8780 -38.0626 -9.4238 -13.3394 -22.0301 0.9089 0.0 0.0 0.0 7.1250 0.0 -0.0 10.4837 30.8148 3.6881
16.6909 18.3336 0.7226 -27.7916 -86.7251 25.9124 0.0000 0.0000 0.0000 -24.3903 -18.5065 -5.5049 3.2691 11.1184 32.6801 2.1545 1.9059 -28.4867 0.0217 0.9515 2.6153 0.0000 0.0000 0.0000 24.5496 6.1669 -23.2656 -8.9622 -16.7833 55.9593 -1.6781 -9.0064 -29.1509 -2.8841 10.5050 -30.6279 -1.5404 1.7316 12.8520 -0.8649 1.7454 7.5152 -0.2433 0.6864 0.6554 4.0378 2.6667 -9.0614 -2.8309 3.2746 19.6077 -1.3139 1.4908 7.6378 -0.0000 0.0000 0.0000 8.0417 12.7035 -29.9903 24.1092 -35.2795 7.7695 17.9332 -4.7462 -8.2818 0.0 0.0 0.0 -7.1250 0.0 0.0 -7.7016 38.5712 -1.2281 -0.0000 0.0000 0.0000 -12.4902 -1.6144 35.8182 -26.9240 -38.1066 -9.4522 -13.2134 -22.1745 0.7136 0.0 0.0 0.0 7.1250 0.0 -0.0 10.5602 30.6153 3.7672
16.7697 18.3431 0.7280 -28.7482 -86.7371 26.8547 0.0000 0.0000 0.0000 -24.2150 -18.1876 -6.0540 3.2681 11.1169 32.6752 2.1129 1.7751 -28.1663 0.0231 0.9811 2.6967 0.0000 0.0000 0.0000 24.6527 5.0460 -23.5954 -9.5990 -17.1781 58.1396 -1.4350 -9.8578 -28.1097 -2.1992 9.2693 -26.6413 -1.6383 1.7499 12.8573 -1.0141 1.7573 7.4841 -0.3453 0.6927 0.6218 4.0571 2.7260 -9.0366 -2.8343 3.3573 19.4187 -1.3101 1.5338 7.5747 -0.0000 -0.0000 0.0000 8.0874 12.3718 -29.9512 24.0437 -35.2105 7.7317 18.2804 -4.875 -8.3707 0.0 0.0 0.0 -7.1250 0.0 0.0 -7.4186 38.6887 -1.1609 -0.0000 -0.0000 0.0000 -12.5499 -2.1869 36.6745 -27.0543 -38.2309 -9.5327 -13.1029 -22.3469 0.6068 0.0 0.0 0.0 7.1250 0.0 -0.0 10.6346 30.5055 3.8231
16.8483 18.3500 0.7305 -28.9986 -86.6570 27.0762 0.0000 0.0000 0.0000 -24.0314 -17.9208 -6.6527 3.2926 11.1543 32.8019 2.0765 1.7010 -27.8996 0.0122 0.7124 1.9578 0.0000 0.0000 0.0000 24.7813 3.8897 -23.5451 -10.1288 -17.4816 59.9179 -1.1060 -10.7913 -26.4712 -1.6209 8.0272 -22.7968 -1.7093 1.7681 12.8395 -1.1384 1.7736 7.4542 -0.4365 0.7018 0.6019 4.0722 2.7438 -8.9909 -2.8324 3.3834 19.2245 -1.3094 1.5503 7.5040 0.0000 -0.0000 0.0000 8.1559 12.0712 -29.9606 24.0650 -35.2329 7.744 18.5763 -5.0342 -8.3972 0.0 0.0 0.0 -7.1250 0.0 0.0 -7.1694 38.7379 -1.1127 0.0000 -0.0000 0.0000 -12.6181 -2.6311 37.4403 -27.2704 -38.4358 -9.6667 -12.9867 -22.5301 0.6268 0.0 0.0 0.0 7.1250 0.0 -0.0 10.7279 30.5236 3.8529
16.9264 18.3508 0.7309 -28.6983 -86.5048 26.7365 0.0000 0.0000 0.0000 -23.8421 -17.7094 -7.3279 3.3534 11.2463 33.1152 2.0519 1.6367 -27.7122 0.0019 0.2778 0.7632 0.0000 0.0000 0.0000 24.9204 2.7361 -23.0837 -10.5023 -17.6828 61.1544 -0.7124 -11.7180 -24.1683 -1.2680 7.1375 -20.1234 -1.7433 1.7926 12.7896 -1.2461 1.8041 7.4287 -0.5319 0.7190 0.6042 4.0931 2.7315 -8.9625 -2.8213 3.3649 19.0504 -1.3108 1.5466 7.4414 -0.0000 0.0000 0.0000 8.2496 11.7994 -30.0094 24.1834 -35.3576 7.8125 18.8086 -5.1768 -8.438 0.0 0.0 0.0 -7.1250 0.0 0.0 -6.9766 38.7976 -1.0721 -0.0000 0.0000 0.0000 -12.6956 -2.9554 38.1167 -27.5643 -38.7121 -9.85 -12.8597 -22.7028 0.8089 0.0 0.0 0.0 7.1250 0.0 -0.0 10.8484 30.7048 3.8497
